<?xml version="1.0" encoding="UTF-8"?>
<svg width="156px" height="21px" viewBox="0 0 156 21" version="1.1" xmlns="http://www.w3.org/2000/svg" xmlns:xlink="http://www.w3.org/1999/xlink">
    <!-- Generator: Sketch 52.3 (67297) - http://www.bohemiancoding.com/sketch -->
    <title>Logo</title>
    <desc>Created with Sketch.</desc>
    <g id="Symbols" stroke="none" stroke-width="1" fill="none" fill-rule="evenodd">
        <g id="Logo/SCHUMANN/On-White" transform="translate(0.000000, -20.000000)" fill="#0F324B">
            <g id="Logo" transform="translate(-1.000000, 20.000000)">
                <path d="M105.057525,12.8603125 L111.059525,12.8603125 L108.058525,5.0563125 L105.057525,12.8603125 Z M106.314525,0.7403125 L109.801525,0.7403125 L117.576525,20.7493125 L114.118525,20.7493125 L112.287525,16.0053125 L103.827525,16.0053125 L101.997525,20.7493125 L98.538525,20.7493125 L106.314525,0.7403125 Z" id="Fill-76"></path>
                <polygon id="Fill-77" points="122.925725 0.7406125 132.930725 14.5176125 132.930725 0.7406125 136.361725 0.7406125 136.361725 20.7486125 133.273725 20.7486125 123.269725 6.9996125 123.269725 20.7486125 119.839725 20.7486125 119.839725 0.7406125"></polygon>
                <polygon id="Fill-78" points="142.876925 0.7406125 152.880925 14.5176125 152.880925 0.7406125 156.311925 0.7406125 156.311925 20.7486125 153.224925 20.7486125 143.220925 6.9996125 143.220925 20.7486125 139.790925 20.7486125 139.790925 0.7406125"></polygon>
                <polygon id="Fill-79" points="48.806625 0.7406125 52.236625 0.7406125 52.236625 20.7486125 48.806625 20.7486125 48.806625 12.1456125 40.259625 12.1456125 40.259625 20.7486125 36.830625 20.7486125 36.830625 0.7406125 40.259625 0.7406125 40.259625 8.8876125 48.806625 8.8876125"></polygon>
                <path d="M31.678625,16.2084125 C30.796625,16.8754125 29.347625,17.6534125 27.366625,17.6534125 C23.487625,17.6534125 20.817625,14.4754125 20.817625,10.7444125 C20.817625,7.0134125 23.487625,3.8344125 27.366625,3.8344125 C29.419625,3.8344125 30.880625,4.6924125 31.675625,5.3194125 L33.936625,3.0974125 C32.873625,2.2014125 30.642625,0.7404125 27.366625,0.7404125 C21.688625,0.7404125 17.387625,5.0244125 17.387625,10.7444125 C17.387625,16.4654125 21.688625,20.7494125 27.366625,20.7494125 C30.556625,20.7494125 32.761625,19.3974125 33.935625,18.4274125 L31.678625,16.2084125 Z" id="Fill-80"></path>
                <path d="M9.328025,9.4179125 C6.630025,8.4229125 5.083025,7.8979125 5.083025,6.2119125 C5.083025,4.9129125 6.404025,3.8909125 8.091025,3.8909125 C10.515025,3.8909125 12.137025,6.0329125 12.165025,6.0699125 L14.468025,3.7679125 C14.183025,3.4119125 11.922025,0.7409125 8.091025,0.7409125 C4.128025,0.7409125 1.653025,3.4759125 1.653025,6.2119125 C1.653025,9.8049125 4.915025,11.3529125 7.810025,12.3479125 C10.142025,13.1489125 11.408025,13.7299125 11.408025,15.3599125 C11.408025,16.9349125 9.666025,17.5989125 7.978025,17.5989125 C5.009025,17.5989125 3.325025,14.7189125 3.313025,14.6989125 L0.953025,17.0599125 C1.564025,17.9429125 3.833025,20.7489125 7.978025,20.7489125 C11.689025,20.7489125 14.837025,18.8689125 14.837025,15.3599125 C14.837025,11.8509125 12.336025,10.5239125 9.328025,9.4179125" id="Fill-81"></path>
                <path d="M67.670825,0.7406125 L67.670825,12.7176125 C67.670825,15.5746125 66.212825,17.4906125 63.383825,17.4906125 C60.524825,17.4906125 59.095825,15.5746125 59.095825,12.7176125 L59.095825,0.7406125 L55.666825,0.7406125 L55.666825,13.1456125 C55.666825,17.5476125 58.667825,20.7486125 63.383825,20.7486125 C68.099825,20.7486125 71.100825,17.5476125 71.100825,13.1456125 L71.100825,0.7406125 L67.670825,0.7406125 Z" id="Fill-82"></path>
                <polygon id="Fill-83" points="92.537125 20.7486125 95.967125 20.7486125 95.967125 0.7406125 92.537125 0.7406125"></polygon>
                <polygon id="Fill-84" points="80.532125 20.7486125 83.963125 20.7486125 83.963125 8.8896125 80.532125 8.8896125"></polygon>
                <polygon id="Fill-85" points="74.530125 20.7486125 77.960125 20.7486125 77.960125 5.0566125 74.530125 5.0566125"></polygon>
                <polygon id="Fill-86" fill-opacity="0.5" points="86.535125 20.7486125 89.965125 20.7486125 89.965125 3.1006125 86.535125 3.1006125"></polygon>
            </g>
        </g>
    </g>
</svg>